<svg width="36" height="36" viewBox="0 0 36 36" fill="none" xmlns="http://www.w3.org/2000/svg">
<g clip-path="url(#clip0)">
<path d="M35.9967 29.009C35.9465 27.6165 35.3664 26.317 34.3634 25.3498C32.3995 23.4561 30.754 22.3629 29.1851 21.9095C27.0233 21.2847 25.0208 21.8528 23.2338 23.5981C23.2311 23.6007 23.2284 23.6034 23.2258 23.6061L21.3245 25.4931C20.1363 24.8233 17.8258 23.3527 15.3296 20.8564L15.1445 20.6715C12.6479 18.1749 11.1773 15.864 10.5081 14.6772L12.3953 12.7758C12.398 12.7732 12.4007 12.7705 12.4033 12.7677C14.1486 10.9808 14.7167 8.97847 14.0919 6.81643C13.6385 5.24755 12.5454 3.60209 10.6516 1.63819C9.68448 0.635327 8.38503 0.055249 6.9925 0.00504588C5.59911 -0.0452275 4.26205 0.439788 3.22508 1.37058L3.18472 1.40687C3.16602 1.42367 3.14774 1.44104 3.12988 1.45883C1.06557 3.52313 -0.0165376 6.41304 0.000407717 9.81624C0.0293062 15.5975 3.20666 22.2088 8.49971 27.5018C9.4978 28.4999 10.6322 29.4876 11.8712 30.4377C12.4875 30.9102 13.3702 30.7938 13.8428 30.1774C14.3154 29.561 14.1988 28.6783 13.5825 28.2058C12.4409 27.3304 11.4 26.4245 10.4884 25.5132C5.70746 20.7323 2.83808 14.859 2.81284 9.80225C2.79983 7.18128 3.58824 4.99365 5.09314 3.47307L5.1039 3.46337C6.12603 2.54586 7.67354 2.60169 8.62712 3.59049C12.2678 7.36613 12.0042 9.14862 10.3955 10.7983L7.78871 13.4246C7.37992 13.8365 7.26608 14.4572 7.50212 14.9874C7.56828 15.136 9.16923 18.6736 13.1563 22.6607L13.3414 22.8456C17.328 26.8322 20.8657 28.4331 21.0144 28.4993C21.5444 28.7354 22.1652 28.6215 22.5771 28.2127L25.2034 25.6059C26.8533 23.9971 28.6358 23.7336 32.4112 27.3743C33.4 28.3278 33.4559 29.8753 32.5386 30.8973L32.5286 30.9084C31.0205 32.401 28.8561 33.1888 26.2637 33.1888C26.2423 33.1888 26.2209 33.1888 26.1995 33.1887C24.1273 33.1783 21.7277 32.6103 19.2604 31.546C18.5474 31.2383 17.7198 31.5671 17.4122 32.2803C17.1046 32.9935 17.4333 33.8209 18.1465 34.1285C20.9985 35.3587 23.7032 35.9887 26.1855 36.0012C26.2119 36.0012 26.238 36.0013 26.2644 36.0013C29.6333 36.0013 32.4946 34.92 34.5429 32.8717C34.5607 32.8538 34.578 32.8356 34.5948 32.8169L34.6313 32.7763C35.562 31.7394 36.047 30.4015 35.9967 29.009Z" fill="black"/>
</g>
<defs>
<clipPath id="clip0">
<rect width="36" height="36" fill="white"/>
</clipPath>
</defs>
</svg>
