<svg width="29" height="22" viewBox="0 0 29 22" fill="none" xmlns="http://www.w3.org/2000/svg">
    <path d="M14.5564 0.99482L27.4769 5.82254C27.5652 5.85527 27.5412 5.98617 27.4474 5.98617H1.60649C1.51213 5.98617 1.48867 5.85527 1.57704 5.82254L14.4975 0.99482C14.5166 0.987729 14.5373 0.987729 14.5564 0.99482Z"
          stroke="black" stroke-width="0.8" stroke-miterlimit="10"/>
    <path d="M27.9182 21.204H1.08127C1.03654 21.204 1 21.168 1 21.1227V19.4848C1 19.44 1.036 19.4035 1.08127 19.4035H27.9187C27.9635 19.4035 28 19.4395 28 19.4848V21.1227C27.9995 21.168 27.9635 21.204 27.9182 21.204Z"
          stroke="black" stroke-width="0.8" stroke-miterlimit="10"/>
    <path d="M8.39512 12.807C8.39512 12.879 8.39458 12.951 8.39294 13.0224H8.39076V13.0742C8.39076 15.3105 7.6975 17.2714 6.65625 18.3678H2.81633C1.77508 17.2714 1.08182 15.3105 1.08182 13.0742C1.08182 13.0022 1.08236 12.9302 1.084 12.8588H1.08618V12.807C1.08618 10.5706 1.77944 8.60977 2.82069 7.51343H6.66061C7.70187 8.60977 8.39512 10.5706 8.39512 12.807Z"
          stroke="black" stroke-width="0.8" stroke-miterlimit="10"/>
    <path d="M18.1564 12.8331C18.1564 12.9051 18.1558 12.9771 18.1542 13.0486H18.152V13.1004C18.152 15.3367 17.4588 17.2976 16.4175 18.3939H12.5776C11.5363 17.2976 10.8431 15.3367 10.8431 13.1004C10.8431 13.0284 10.8436 12.9564 10.8453 12.885H10.8474V12.8331C10.8474 10.5968 11.5407 8.63595 12.582 7.53961H16.4219C17.4631 8.63595 18.1564 10.5968 18.1564 12.8331Z"
          stroke="black" stroke-width="0.8" stroke-miterlimit="10"/>
    <path d="M27.9176 12.8331C27.9176 12.9051 27.9171 12.9771 27.9154 13.0486H27.9133V13.1004C27.9133 15.3367 27.22 17.2976 26.1788 18.3939H22.3388C21.2976 17.2976 20.6043 15.3367 20.6043 13.1004C20.6043 13.0284 20.6049 12.9564 20.6065 12.885H20.6087V12.8331C20.6087 10.5968 21.3019 8.63595 22.3432 7.53961H26.1831C27.2244 8.63595 27.9176 10.5968 27.9176 12.8331Z"
          stroke="black" stroke-width="0.8" stroke-miterlimit="10"/>
</svg>
