<svg width="54" height="41" viewBox="0 0 54 41" fill="none" xmlns="http://www.w3.org/2000/svg">
<path d="M27.1087 1.01024L51.9926 10.3081C52.1627 10.3711 52.1165 10.6232 51.9358 10.6232H2.16812C1.98638 10.6232 1.94121 10.3711 2.11139 10.3081L26.9953 1.01024C27.032 0.996586 27.0719 0.996586 27.1087 1.01024Z" stroke="#E8E8E8" stroke-miterlimit="10"/>
<path d="M52.8424 39.9318H1.15652C1.07038 39.9318 1 39.8624 1 39.7752V36.6206C1 36.5345 1.06933 36.4641 1.15652 36.4641H52.8435C52.9296 36.4641 53 36.5334 53 36.6206V39.7752C52.9989 39.8624 52.9296 39.9318 52.8424 39.9318Z" stroke="#E8E8E8" stroke-miterlimit="10"/>
<path d="M15.2425 23.7594C15.2425 23.8981 15.2414 24.0367 15.2383 24.1743H15.2341V24.2741C15.2341 28.5811 13.8989 32.3576 11.8935 34.4691H4.49812C2.49274 32.3576 1.15758 28.5811 1.15758 24.2741C1.15758 24.1355 1.15863 23.9968 1.16178 23.8592H1.16598V23.7594C1.16598 19.4524 2.50115 15.6759 4.50652 13.5645H11.9019C13.9073 15.6759 15.2425 19.4524 15.2425 23.7594Z" stroke="#E8E8E8" stroke-miterlimit="10"/>
<path d="M34.0419 23.8099C34.0419 23.9486 34.0409 24.0873 34.0377 24.2249H34.0335V24.3247C34.0335 28.6317 32.6983 32.4081 30.693 34.5196H23.2976C21.2922 32.4081 19.957 28.6317 19.957 24.3247C19.957 24.186 19.9581 24.0473 19.9612 23.9097H19.9654V23.8099C19.9654 19.503 21.3006 15.7265 23.306 13.615H30.7014C32.7068 15.7265 34.0419 19.503 34.0419 23.8099Z" stroke="#E8E8E8" stroke-miterlimit="10"/>
<path d="M52.8414 23.8099C52.8414 23.9486 52.8403 24.0873 52.8372 24.2249H52.833V24.3247C52.833 28.6317 51.4978 32.4081 49.4924 34.5196H42.097C40.0916 32.4081 38.7565 28.6317 38.7565 24.3247C38.7565 24.186 38.7575 24.0473 38.7607 23.9097H38.7649V23.8099C38.7649 19.503 40.1 15.7265 42.1054 13.615H49.5008C51.5062 15.7265 52.8414 19.503 52.8414 23.8099Z" stroke="#E8E8E8" stroke-miterlimit="10"/>
</svg>
