<svg width="126" height="19" viewBox="0 0 126 19" fill="none" xmlns="http://www.w3.org/2000/svg">
<path d="M12.1525 1.75C13.1859 2.76667 13.7025 4.26667 13.7025 6.25C13.7025 8.23333 13.1859 9.74167 12.1525 10.775C11.1359 11.7917 9.69421 12.3 7.82754 12.3H4.40254V18H0.927539V0.2H7.82754C9.69421 0.2 11.1359 0.716666 12.1525 1.75ZM10.2275 6.25C10.2275 4.28333 9.36921 3.3 7.65254 3.3H4.40254V9.175H7.65254C8.48587 9.175 9.11921 8.95 9.55254 8.5C10.0025 8.05 10.2275 7.3 10.2275 6.25ZM30.1258 18H26.5008L25.5008 14.925H19.5258L18.5508 18H14.9258L20.6258 1.7C20.8758 1.13333 21.1508 0.741665 21.4508 0.524998C21.7674 0.308333 22.1508 0.2 22.6008 0.2C23.0508 0.2 23.4091 0.299999 23.6758 0.499999C23.9591 0.699999 24.2091 1.1 24.4258 1.7L30.1258 18ZM24.7008 12L22.6008 4.95L20.4008 12H24.7008ZM43.5432 18H38.2432C36.2432 18 34.7932 17.6167 33.8932 16.85C33.0098 16.0667 32.5682 14.8 32.5682 13.05V0.2H36.0432V13.05C36.0432 13.75 36.2015 14.2333 36.5182 14.5C36.8348 14.7667 37.4098 14.9 38.2432 14.9H43.5432V18ZM59.8133 18H56.1883L55.1883 14.925H49.2133L48.2383 18H44.6133L50.3133 1.7C50.5633 1.13333 50.8383 0.741665 51.1383 0.524998C51.4549 0.308333 51.8383 0.2 52.2883 0.2C52.7383 0.2 53.0966 0.299999 53.3633 0.499999C53.6466 0.699999 53.8966 1.1 54.1133 1.7L59.8133 18ZM54.3883 12L52.2883 4.95L50.0883 12H54.3883ZM73.8307 3.3H69.0557V18H65.5807V3.3H60.8307V0.2H73.8307V3.3ZM80.0129 18H76.5379V0.2H80.0129V18ZM98.0301 0.2V16.2C98.0301 16.75 97.8634 17.225 97.5301 17.625C97.1967 18.0083 96.8051 18.2 96.3551 18.2C95.2051 18.2 94.2634 17.5333 93.5301 16.2L87.3801 6.575V18H83.9051V0.2H87.2551L94.5551 11.85V0.2H98.0301ZM108.736 12.375H101.036V9.35H108.736V12.375ZM125.78 18H122.155L121.155 14.925H115.18L114.205 18H110.58L116.28 1.7C116.53 1.13333 116.805 0.741665 117.105 0.524998C117.422 0.308333 117.805 0.2 118.255 0.2C118.705 0.2 119.063 0.299999 119.33 0.499999C119.613 0.699999 119.863 1.1 120.08 1.7L125.78 18ZM120.355 12L118.255 4.95L116.055 12H120.355Z" fill="white"/>
</svg>
