<svg width="43" height="33" viewBox="0 0 43 33" fill="none" xmlns="http://www.w3.org/2000/svg">
<path d="M21.7895 1.00816L41.6037 8.41171C41.7392 8.4619 41.7024 8.66265 41.5585 8.66265H1.93014C1.78543 8.66265 1.74946 8.4619 1.88497 8.41171L21.6992 1.00816C21.7284 0.997281 21.7602 0.997281 21.7895 1.00816Z" stroke="white" stroke-miterlimit="10"/>
<path d="M42.2804 32H1.12463C1.05604 32 1 31.9448 1 31.8754V29.3635C1 29.2949 1.05521 29.2388 1.12463 29.2388H42.2812C42.3498 29.2388 42.4059 29.294 42.4059 29.3635V31.8754C42.405 31.9448 42.3498 32 42.2804 32Z" stroke="white" stroke-miterlimit="10"/>
<path d="M12.3408 19.1227C12.3408 19.2331 12.34 19.3435 12.3375 19.4531H12.3341V19.5325C12.3341 22.962 11.271 25.9691 9.67416 27.6504H3.78545C2.18864 25.9691 1.12549 22.962 1.12549 19.5325C1.12549 19.4221 1.12632 19.3117 1.12883 19.2021H1.13218V19.1227C1.13218 15.6931 2.19533 12.6861 3.79214 11.0048H9.68086C11.2777 12.6861 12.3408 15.6931 12.3408 19.1227Z" stroke="white" stroke-miterlimit="10"/>
<path d="M27.3103 19.1628C27.3103 19.2732 27.3095 19.3836 27.307 19.4932H27.3036V19.5727C27.3036 23.0022 26.2405 26.0093 24.6436 27.6906H18.7549C17.1581 26.0093 16.095 23.0022 16.095 19.5727C16.095 19.4623 16.0958 19.3519 16.0983 19.2423H16.1017V19.1628C16.1017 15.7333 17.1648 12.7262 18.7616 11.0449H24.6503C26.2472 12.7262 27.3103 15.7333 27.3103 19.1628Z" stroke="white" stroke-miterlimit="10"/>
<path d="M42.2795 19.1628C42.2795 19.2732 42.2787 19.3836 42.2762 19.4932H42.2728V19.5727C42.2728 23.0022 41.2097 26.0093 39.6129 27.6906H33.7242C32.1274 26.0093 31.0642 23.0022 31.0642 19.5727C31.0642 19.4623 31.065 19.3519 31.0676 19.2423H31.0709V19.1628C31.0709 15.7333 32.134 12.7262 33.7309 11.0449H39.6196C41.2164 12.7262 42.2795 15.7333 42.2795 19.1628Z" stroke="white" stroke-miterlimit="10"/>
</svg>
