<svg width="12" height="8" viewBox="0 0 12 8" fill="none" xmlns="http://www.w3.org/2000/svg">
<path d="M11.3846 0H0.615398C0.276914 0 0 0.276914 0 0.615375V7.38462C0 7.72305 0.276914 8.00002 0.615398 8.00002H11.3846C11.7231 8.00002 12 7.7231 12 7.38462V0.615375C12 0.276914 11.7231 0 11.3846 0ZM11.1537 0.461508L6.354 4.06155C6.2677 4.12723 6.13523 4.16831 5.99998 4.1677C5.86474 4.16831 5.7323 4.12723 5.64598 4.06155L0.846305 0.461508H11.1537ZM8.58984 4.29909L11.2052 7.52988C11.2079 7.53312 11.2111 7.53558 11.2139 7.53851H0.786141C0.788906 7.53544 0.792141 7.53312 0.794766 7.52988L3.41016 4.29909C3.49029 4.20002 3.4751 4.05478 3.37584 3.97446C3.27677 3.89433 3.13153 3.90952 3.05137 4.00861L0.461531 7.20785V0.749977L5.3692 4.43074C5.55368 4.56813 5.77812 4.6286 5.99995 4.62921C6.22148 4.62874 6.44611 4.56827 6.6307 4.43074L11.5384 0.749977V7.2078L8.9486 4.00861C8.86845 3.90954 8.72306 3.8943 8.62413 3.97446C8.5249 4.05459 8.50966 4.20002 8.58984 4.29909Z" fill="#F9F9F9"/>
</svg>
