<svg width="41" height="41" viewBox="0 0 41 41" fill="none" xmlns="http://www.w3.org/2000/svg">
<path d="M39.3984 23.3428C40.283 23.3428 41 22.6258 41 21.7412V11.251C41 7.71857 38.1262 4.84473 34.5938 4.84473H6.40625C2.87384 4.84473 0 7.71857 0 11.251V29.749C0 33.2814 2.87384 36.1553 6.40625 36.1553H34.5938C38.1262 36.1553 41 33.2814 41 29.749C41 28.8645 40.283 28.1475 39.3984 28.1475C38.5139 28.1475 37.7969 28.8645 37.7969 29.749C37.7969 31.5152 36.36 32.9521 34.5938 32.9521H6.40625C4.64005 32.9521 3.20312 31.5152 3.20312 29.749V11.5903L17.1171 20.2424C18.1604 20.8911 19.3302 21.2155 20.5 21.2155C21.6698 21.2155 22.8396 20.8911 23.8829 20.2424L37.7969 11.5903V21.7412C37.7969 22.6258 38.5139 23.3428 39.3984 23.3428ZM22.1914 17.5222C21.1482 18.1709 19.8518 18.171 18.8086 17.5222L4.53955 8.6494C5.0655 8.27095 5.71029 8.04785 6.40625 8.04785H34.5938C35.2897 8.04785 35.9345 8.27103 36.4605 8.64948L22.1914 17.5222Z" fill="black"/>
</svg>
