<svg width="62" height="62" viewBox="0 0 62 62" fill="none" xmlns="http://www.w3.org/2000/svg">
<path d="M57.3403 19.1908C54.9612 16.9178 51.7871 15.6662 48.4969 15.7037C45.2068 15.7412 42.062 17.0649 39.7353 19.3915C37.4087 21.7181 36.085 24.863 36.0475 28.1531C36.01 31.4432 37.2617 34.6174 39.5347 36.9965L47.7497 45.2212C47.8397 45.312 47.9469 45.384 48.0649 45.4332C48.183 45.4824 48.3096 45.5077 48.4375 45.5077C48.5654 45.5077 48.692 45.4824 48.8101 45.4332C48.9281 45.384 49.0353 45.312 49.1253 45.2212L57.3403 36.9965C59.7007 34.6349 61.0266 31.4326 61.0266 28.0937C61.0266 24.7547 59.7007 21.5524 57.3403 19.1908ZM48.4375 31.9687C47.6711 31.9687 46.9219 31.7414 46.2847 31.3156C45.6474 30.8898 45.1508 30.2846 44.8575 29.5766C44.5642 28.8685 44.4874 28.0894 44.637 27.3377C44.7865 26.586 45.1555 25.8955 45.6975 25.3536C46.2394 24.8117 46.9298 24.4426 47.6815 24.2931C48.4332 24.1436 49.2123 24.2203 49.9204 24.5136C50.6285 24.8069 51.2337 25.3036 51.6594 25.9408C52.0852 26.5781 52.3125 27.3273 52.3125 28.0937C52.3125 29.1214 51.9042 30.107 51.1775 30.8337C50.4508 31.5604 49.4652 31.9687 48.4375 31.9687ZM22.5138 43.5937H20.5763C20.109 43.5884 19.6556 43.7521 19.2995 44.0548C18.9435 44.3574 18.7088 44.7785 18.6388 45.2405L16.8175 57.689C16.7543 58.1055 16.7824 58.5308 16.8998 58.9354C17.0173 59.34 17.2213 59.7142 17.4978 60.0321C17.7742 60.35 18.1165 60.604 18.5008 60.7765C18.8852 60.9491 19.3025 61.0359 19.7238 61.0312H57.6987C58.1288 61.031 58.5534 60.9353 58.9419 60.7512C59.3305 60.567 59.6734 60.299 59.9459 59.9663C60.2183 59.6336 60.4135 59.2446 60.5175 58.8273C60.6214 58.4101 60.6314 57.975 60.5469 57.5533L59.8494 54.0562C59.8041 53.834 59.6823 53.6348 59.5053 53.4932C59.3283 53.3516 59.1073 53.2766 58.8806 53.2812H52.3125C52.0556 53.2812 51.8092 53.1791 51.6275 52.9974C51.4458 52.8157 51.3437 52.5693 51.3437 52.3124C51.3437 52.0555 51.4458 51.8091 51.6275 51.6274C51.8092 51.4457 52.0556 51.3437 52.3125 51.3437H58.125C58.2703 51.3466 58.4144 51.3168 58.5466 51.2565C58.6788 51.1962 58.7958 51.1069 58.8888 50.9953C58.9819 50.8836 59.0486 50.7525 59.0841 50.6116C59.1195 50.4706 59.1228 50.3235 59.0937 50.1812L57.4178 41.8112C57.3836 41.6388 57.3031 41.4791 57.185 41.349C57.0669 41.2189 56.9157 41.1234 56.7475 41.0726C56.5793 41.0219 56.4005 41.0178 56.2302 41.0609C56.0599 41.1039 55.9045 41.1925 55.7806 41.3171L55.0153 42.0824C54.8614 42.2388 54.7651 42.4428 54.7422 42.661C54.7193 42.8792 54.7712 43.0988 54.8894 43.2837C55.108 43.6742 55.2214 44.1148 55.2187 44.5624C55.2187 47.1393 51.8281 48.4374 48.4375 48.4374C45.0469 48.4374 41.6562 47.149 41.6562 44.5624C41.6595 44.1131 41.7797 43.6724 42.005 43.2837C42.1232 43.0988 42.175 42.8792 42.1522 42.661C42.1293 42.4428 42.033 42.2388 41.8791 42.0824L38.1591 38.3721C36.0232 36.2332 34.6075 33.4814 34.1091 30.5C33.6108 27.5186 34.0546 24.456 35.3787 21.7387C35.4508 21.5916 35.4844 21.4286 35.4764 21.2649C35.4684 21.1013 35.419 20.9424 35.3329 20.8031C35.2468 20.6637 35.1267 20.5485 34.9839 20.4681C34.8412 20.3878 34.6804 20.345 34.5166 20.3437H24.9163C24.2154 20.3357 23.5352 20.5814 23.0012 21.0353C22.4671 21.4893 22.1151 22.121 22.01 22.814L20.0725 35.553C20.0304 35.8307 20.0491 36.1142 20.1274 36.384C20.2057 36.6537 20.3417 36.9032 20.526 37.1151C20.7103 37.3271 20.9385 37.4964 21.1947 37.6114C21.451 37.7264 21.7292 37.7843 22.01 37.7812H22.9788C23.1164 37.7802 23.2526 37.8085 23.3784 37.8643C23.5042 37.9201 23.6167 38.002 23.7084 38.1047C23.8 38.2073 23.8688 38.3283 23.91 38.4596C23.9512 38.591 23.964 38.7295 23.9475 38.8662L23.4631 42.7412C23.435 42.9741 23.3232 43.189 23.1486 43.3458C22.974 43.5026 22.7484 43.5907 22.5138 43.5937ZM31.9688 37.8393H35.8438C36.1007 37.8393 36.3471 37.9413 36.5288 38.123C36.7104 38.3047 36.8125 38.5511 36.8125 38.808C36.8125 39.065 36.7104 39.3114 36.5288 39.493C36.3471 39.6747 36.1007 39.7768 35.8438 39.7768H31.9688C31.7118 39.7768 31.4654 39.6747 31.2837 39.493C31.1021 39.3114 31 39.065 31 38.808C31 38.5511 31.1021 38.3047 31.2837 38.123C31.4654 37.9413 31.7118 37.8393 31.9688 37.8393ZM25.0616 55.2187H36.8125C37.0694 55.2187 37.3158 55.3207 37.4975 55.5024C37.6792 55.6841 37.7812 55.9305 37.7812 56.1874C37.7812 56.4443 37.6792 56.6907 37.4975 56.8724C37.3158 57.0541 37.0694 57.1562 36.8125 57.1562H25.0616C24.8046 57.1562 24.5582 57.0541 24.3766 56.8724C24.1949 56.6907 24.0928 56.4443 24.0928 56.1874C24.0928 55.9305 24.1949 55.6841 24.3766 55.5024C24.5582 55.3207 24.8046 55.2187 25.0616 55.2187ZM50.375 28.0937C50.375 28.4769 50.2614 28.8515 50.0485 29.1701C49.8356 29.4887 49.533 29.737 49.1789 29.8837C48.8249 30.0303 48.4353 30.0687 48.0595 29.9939C47.6837 29.9192 47.3384 29.7346 47.0675 29.4637C46.7965 29.1927 46.612 28.8475 46.5372 28.4716C46.4625 28.0958 46.5008 27.7062 46.6475 27.3522C46.7941 26.9982 47.0425 26.6956 47.3611 26.4827C47.6797 26.2698 48.0543 26.1562 48.4375 26.1562C48.9514 26.1562 49.4442 26.3603 49.8075 26.7236C50.1709 27.087 50.375 27.5798 50.375 28.0937Z" fill="#DBD439"/>
<path d="M31.9687 24.2186C32.2257 24.2186 32.4721 24.3207 32.6538 24.5024C32.8354 24.6841 32.9375 24.9305 32.9375 25.1874C32.9375 25.4443 32.8354 25.6907 32.6538 25.8724C32.4721 26.0541 32.2257 26.1561 31.9687 26.1561H25.0616C24.8046 26.1561 24.5582 26.0541 24.3765 25.8724C24.1949 25.6907 24.0928 25.4443 24.0928 25.1874C24.0928 24.9305 24.1949 24.6841 24.3765 24.5024C24.5582 24.3207 24.8046 24.2186 25.0616 24.2186H31.9687ZM9.6875 41.6561H17.4375C17.6944 41.6561 17.9408 41.5541 18.1225 41.3724C18.3042 41.1907 18.4062 40.9443 18.4062 40.6874C18.4062 40.4305 18.3042 40.1841 18.1225 40.0024C17.9408 39.8207 17.6944 39.7186 17.4375 39.7186H9.6875C9.43057 39.7186 9.18416 39.8207 9.00249 40.0024C8.82081 40.1841 8.71875 40.4305 8.71875 40.6874C8.71875 40.9443 8.82081 41.1907 9.00249 41.3724C9.18416 41.5541 9.43057 41.6561 9.6875 41.6561ZM34.875 14.5311H29.0625C28.8056 14.5311 28.5592 14.6332 28.3775 14.8149C28.1958 14.9966 28.0937 15.243 28.0937 15.4999C28.0937 15.7568 28.1958 16.0032 28.3775 16.1849C28.5592 16.3666 28.8056 16.4686 29.0625 16.4686H34.875C35.1319 16.4686 35.3783 16.3666 35.56 16.1849C35.7417 16.0032 35.8438 15.7568 35.8438 15.4999C35.8438 15.243 35.7417 14.9966 35.56 14.8149C35.3783 14.6332 35.1319 14.5311 34.875 14.5311ZM13.5625 9.68739C13.5625 8.92099 13.7898 8.1718 14.2156 7.53456C14.6413 6.89732 15.2465 6.40065 15.9546 6.10736C16.6627 5.81407 17.4418 5.73733 18.1935 5.88685C18.9451 6.03637 19.6356 6.40543 20.1775 6.94736C20.7195 7.48928 21.0885 8.17974 21.238 8.93142C21.3876 9.6831 21.3108 10.4622 21.0175 11.1703C20.7242 11.8784 20.2276 12.4835 19.5903 12.9093C18.9531 13.3351 18.2039 13.5624 17.4375 13.5624C16.4098 13.5624 15.4242 13.1541 14.6975 12.4274C13.9708 11.7007 13.5625 10.7151 13.5625 9.68739ZM15.5 9.68739C15.5 10.0706 15.6136 10.4452 15.8265 10.7638C16.0394 11.0824 16.342 11.3308 16.696 11.4774C17.0501 11.6241 17.4396 11.6624 17.8155 11.5877C18.1913 11.5129 18.5366 11.3284 18.8075 11.0574C19.0785 10.7864 19.263 10.4412 19.3378 10.0654C19.4125 9.68954 19.3742 9.29998 19.2275 8.94595C19.0809 8.59191 18.8325 8.28932 18.5139 8.07642C18.1953 7.86353 17.8207 7.74989 17.4375 7.74989C16.9236 7.74989 16.4308 7.95402 16.0675 8.31738C15.7041 8.68073 15.5 9.17354 15.5 9.68739ZM23.25 49.4061H4.30125C3.87124 49.4059 3.44663 49.3103 3.05805 49.1262C2.66946 48.942 2.32659 48.674 2.05414 48.3413C1.78169 48.0086 1.58646 47.6196 1.48253 47.2023C1.3786 46.7851 1.36855 46.3499 1.45312 45.9283L8.71875 9.53239C8.7803 7.33369 9.67061 5.2395 11.2112 3.6696C12.7518 2.0997 14.8289 1.17011 17.0261 1.06718C19.2232 0.964243 21.3781 1.69557 23.0587 3.11455C24.7394 4.53354 25.8216 6.53532 26.0884 8.71864H39.0988C39.7701 8.71896 40.4206 8.95169 40.9398 9.37729C41.459 9.80288 41.8148 10.3951 41.9469 11.0533L42.4119 13.3686C42.4633 13.6256 42.4105 13.8924 42.2651 14.1104C42.1198 14.3284 41.8938 14.4798 41.6369 14.5311C41.3799 14.5825 41.1131 14.5297 40.8951 14.3844C40.6771 14.2391 40.5258 14.0131 40.4744 13.7561L40.0094 11.4311C39.9641 11.209 39.8423 11.0098 39.6653 10.8682C39.4883 10.7266 39.2673 10.6516 39.0406 10.6561H26.0884C25.575 15.3546 22.0875 16.8465 18.1253 21.3124C18.0352 21.4032 17.9281 21.4753 17.8101 21.5244C17.692 21.5736 17.5654 21.599 17.4375 21.599C17.3096 21.599 17.183 21.5736 17.0649 21.5244C16.9469 21.4753 16.8397 21.4032 16.7497 21.3124C11.6928 16.1199 10.8403 15.7324 9.82312 13.9111L3.35187 46.3061C3.32278 46.4485 3.32609 46.5956 3.36156 46.7366C3.39703 46.8775 3.46376 47.0086 3.55679 47.1203C3.64983 47.2319 3.76679 47.3212 3.89901 47.3815C4.03123 47.4418 4.17533 47.4716 4.32062 47.4686H23.25C23.5069 47.4686 23.7533 47.5707 23.935 47.7524C24.1167 47.9341 24.2187 48.1805 24.2187 48.4374C24.2187 48.6943 24.1167 48.9407 23.935 49.1224C23.7533 49.3041 23.5069 49.4061 23.25 49.4061ZM12.6422 14.5311L17.4375 19.278L22.2812 14.5311C23.2296 13.5827 23.8753 12.3744 24.1369 11.059C24.3985 9.74361 24.2642 8.38016 23.7509 7.14109C23.2376 5.90202 22.3685 4.84297 21.2533 4.09787C20.1382 3.35277 18.8271 2.95507 17.4859 2.95507C16.1448 2.95507 14.8337 3.35277 13.7185 4.09787C12.6034 4.84297 11.7342 5.90202 11.2209 7.14109C10.7077 8.38016 10.5733 9.74361 10.8349 11.059C11.0965 12.3744 11.7423 13.5827 12.6906 14.5311H12.6422ZM44.5625 43.5936H30.1959C30.0619 43.5941 29.9293 43.5667 29.8064 43.5132C29.6835 43.4598 29.573 43.3814 29.482 43.2831C29.3909 43.1847 29.3213 43.0686 29.2774 42.942C29.2336 42.8153 29.2165 42.681 29.2272 42.5474L29.8472 35.1171C29.8808 34.7156 29.8305 34.3115 29.6995 33.9304C29.5686 33.5494 29.3599 33.1997 29.0866 32.9036C28.8133 32.6076 28.4814 32.3716 28.112 32.2106C27.7427 32.0496 27.3439 31.9672 26.9409 31.9686H18.6678C18.5302 31.9696 18.3939 31.9413 18.2681 31.8855C18.1423 31.8297 18.0298 31.7478 17.9382 31.6451C17.8465 31.5425 17.7778 31.4215 17.7366 31.2902C17.6953 31.1589 17.6825 31.0203 17.6991 30.8836L18.4062 25.3036C18.4371 25.0467 18.3646 24.7881 18.2047 24.5846C18.0448 24.3811 17.8107 24.2495 17.5537 24.2186C17.2968 24.1878 17.0382 24.2603 16.8347 24.4202C16.6312 24.5801 16.4996 24.8142 16.4687 25.0711L15.7712 30.6415C15.7202 31.0521 15.7574 31.4689 15.8804 31.864C16.0035 32.2591 16.2094 32.6233 16.4846 32.9324C16.7597 33.2415 17.0977 33.4882 17.4758 33.6561C17.854 33.8241 18.2637 33.9093 18.6775 33.9061H26.97C27.104 33.9057 27.2366 33.9331 27.3595 33.9866C27.4824 34.04 27.5929 34.1184 27.6839 34.2167C27.775 34.315 27.8446 34.4312 27.8885 34.5578C27.9324 34.6845 27.9495 34.8188 27.9387 34.9524L27.3187 42.3827C27.2852 42.7842 27.3354 43.1883 27.4664 43.5694C27.5973 43.9504 27.8061 44.3001 28.0794 44.5962C28.3527 44.8922 28.6845 45.1282 29.0539 45.2892C29.4233 45.4502 29.8221 45.5326 30.225 45.5311H44.5625C44.8194 45.5311 45.0658 45.4291 45.2475 45.2474C45.4292 45.0657 45.5312 44.8193 45.5312 44.5624C45.5312 44.3055 45.4292 44.0591 45.2475 43.8774C45.0658 43.6957 44.8194 43.5936 44.5625 43.5936Z" fill="white"/>
</svg>
