<svg width="12" height="12" viewBox="0 0 12 12" fill="none" xmlns="http://www.w3.org/2000/svg">
<path d="M3.85528 0.947213C3.85425 1.7057 3.97456 2.45947 4.21165 3.17998C4.29153 3.43122 4.22472 3.70605 4.03833 3.89256L4.02595 3.90495L4.01542 3.91894L3.01438 5.24905L2.9211 5.37299L2.99073 5.5116C3.75003 7.02326 4.97668 8.24967 6.48847 9.0087L6.62725 9.07838L6.75121 8.98486L8.11415 7.95663L8.12487 7.94854L8.13467 7.93935C8.31762 7.76765 8.58086 7.71191 8.81769 7.79472L8.81767 7.79476L4.10528 0.947369M3.85528 0.947213C3.85528 0.947151 3.85528 0.947088 3.85528 0.947026L4.10528 0.947369M3.85528 0.947213C3.85528 0.947265 3.85528 0.947317 3.85528 0.947369H4.10528M3.85528 0.947213C3.85519 0.562142 3.543 0.25 3.15791 0.25H0.947369C0.56227 0.25 0.250071 0.562155 0.25 0.947238M4.10528 0.947369C4.10528 0.424155 3.68112 0 3.15791 0H0.947369C0.424155 0 0 0.424155 0 0.947369M0.25 0.947238C0.25 0.947186 0.25 0.947135 0.25 0.947084L0 0.947369M0.25 0.947238C0.25 0.947281 0.25 0.947325 0.25 0.947369H0M0.25 0.947238C0.256883 6.91064 5.08949 11.7432 11.0529 11.75C11.4379 11.7498 11.75 11.4377 11.75 11.0526V8.84843C11.75 8.46337 11.4379 8.15119 11.0529 8.15106C11.0528 8.15106 11.0527 8.15106 11.0526 8.15106V7.90106L0 0.947369" stroke="#F9F9F9" stroke-width="0.5"/>
<path d="M12 4.73685H11.75C11.75 4.77321 11.7205 4.80265 11.6842 4.80265C11.6479 4.80265 11.6184 4.77318 11.6184 4.73685V4.73654C11.6155 2.33257 9.66743 0.384522 7.26346 0.38157H7.26316C7.22682 0.38157 7.19736 0.352104 7.19736 0.31577C7.19736 0.279467 7.22679 0.25 7.26316 0.25V0M12 4.73685L11.75 4.73711C11.7474 2.26003 9.73997 0.252636 7.26289 0.25L7.26316 0M12 4.73685C11.9972 2.1219 9.8781 0.0027829 7.26316 0M12 4.73685C12 4.91125 11.8586 5.05265 11.6842 5.05265C11.5098 5.05265 11.3684 4.91125 11.3684 4.73685C11.3657 2.47071 9.52929 0.634352 7.26316 0.63157C7.08875 0.63157 6.94736 0.490175 6.94736 0.31577C6.94736 0.141365 7.08875 0 7.26316 0" fill="#F9F9F9" stroke="#F9F9F9" stroke-width="0.5"/>
<path d="M9.1579 4.80295C9.12156 4.80295 9.0921 4.77349 9.0921 4.73715C9.0921 3.72706 8.27325 2.90821 7.26316 2.90821C7.22682 2.90821 7.19736 2.87875 7.19736 2.84241C7.19736 2.80608 7.22682 2.77661 7.26316 2.77661C8.34595 2.77661 9.2237 3.65439 9.2237 4.73715C9.2237 4.77349 9.19423 4.80295 9.1579 4.80295Z" fill="#F9F9F9" stroke="#F9F9F9" stroke-width="0.5"/>
</svg>
