<svg width="8" height="12" viewBox="0 0 8 12" fill="none" xmlns="http://www.w3.org/2000/svg">
<path d="M6.51517 7.16245L6.51508 7.16239L6.51122 7.16871L3.85919 11.5108L1.32003 7.12192L1.31903 7.12004L1.31028 7.10352C1.30252 7.08882 1.29102 7.06687 1.2763 7.03839C1.24686 6.98141 1.20459 6.89837 1.15377 6.79502C1.05204 6.5881 0.916545 6.30075 0.781252 5.97872C0.50508 5.32138 0.25 4.56543 0.25 4.04952C0.25 1.94822 1.93232 0.25 4.00084 0.25C6.06829 0.25 7.75031 1.94815 7.75 4.04948V4.04952C7.75 4.63378 7.45572 5.40064 7.13779 6.0494C6.98181 6.3677 6.82558 6.64692 6.7083 6.84659C6.64972 6.94632 6.60103 7.02592 6.56716 7.0803C6.55023 7.10749 6.53702 7.12835 6.52815 7.14226L6.51817 7.15782L6.51577 7.16153L6.51524 7.16235L6.51517 7.16245ZM1.44176 3.94492C1.44176 5.36913 2.57416 6.52991 3.98211 6.52991C5.3893 6.52991 6.52279 5.36922 6.52279 3.94492C6.52279 2.5221 5.38908 1.36231 3.98211 1.36231C2.57401 1.36231 1.44176 2.52222 1.44176 3.94492Z" stroke="white" stroke-width="0.5"/>
</svg>
